<?xml version="1.0" encoding="UTF-8"?>
<svg id="Layer_1" data-name="Layer 1" xmlns="http://www.w3.org/2000/svg" xmlns:xlink="http://www.w3.org/1999/xlink" viewBox="0 0 76.87 87.3">
  <defs>
    <style>
      .cls-1 {
        fill: url(#linear-gradient);
      }

      .cls-2 {
        fill: url(#linear-gradient-3);
      }

      .cls-3 {
        fill: url(#linear-gradient-4);
      }

      .cls-4 {
        fill: url(#linear-gradient-2);
      }
    </style>
    <linearGradient id="linear-gradient" x1="-88.11" y1="630.16" x2="-88.11" y2="646.07" gradientTransform="translate(149.94 -939.87) scale(1.56)" gradientUnits="userSpaceOnUse">
      <stop offset="0" stop-color="#8ab4ff"/>
      <stop offset=".7" stop-color="#e492ff"/>
    </linearGradient>
    <linearGradient id="linear-gradient-2" x1="-88.11" y1="628.12" x2="-88.11" y2="641.34" gradientTransform="translate(149.94 -939.87) scale(1.56)" gradientUnits="userSpaceOnUse">
      <stop offset="0" stop-color="#8ab4ff"/>
      <stop offset=".7" stop-color="#e492ff"/>
    </linearGradient>
    <linearGradient id="linear-gradient-3" x1="-71.49" y1="209.15" x2="-71.49" y2="184.7" gradientTransform="translate(149.94 337.17) scale(1.56 -1.56)" gradientUnits="userSpaceOnUse">
      <stop offset="0" stop-color="#8ab4ff"/>
      <stop offset="1" stop-color="#e492ff"/>
    </linearGradient>
    <linearGradient id="linear-gradient-4" x1="-71.36" y1="211.79" x2="-71.36" y2="162.07" gradientTransform="translate(149.94 337.17) scale(1.56 -1.56)" gradientUnits="userSpaceOnUse">
      <stop offset="0" stop-color="#1a6dff"/>
      <stop offset="1" stop-color="#c822ff"/>
    </linearGradient>
  </defs>
  <path class="cls-1" d="M18.27,55.17s.02,.02,.02,.03l-12.03,7.03,12.02-7.06Z"/>
  <path class="cls-4" d="M18.27,55.17s.02,.02,.02,.03l-12.03,7.03,12.02-7.06Z"/>
  <path class="cls-2" d="M38.44,6.48L6.25,25.07V62.23l12.02-7.06c-1.84-3.39-2.89-7.27-2.89-11.41,0-4.5,1.25-8.69,3.41-12.3,4.19-6.97,11.83-11.66,20.55-11.66,8.23,0,15.8,4.17,20.22,11.12l-.61,.37-10.27,6.05c-2.11-3.11-5.58-4.94-9.34-4.94-4.09,0-7.67,2.17-9.67,5.42-1.06,1.73-1.67,3.75-1.67,5.92,0,1.81,.42,3.52,1.17,5.03l9.58-5.63h.02l.06,.03,31.41-18.36L38.44,6.48Z"/>
  <path class="cls-3" d="M38.81,43.2l-9.64,5.62c1.86,3.72,5.72,6.28,10.16,6.28,3.72,0,7.11-1.81,9.24-4.79l11.06,6.14c-4.37,6.98-11.97,11.25-20.29,11.25-9.06,0-16.98-5.06-21.05-12.52l-12.03,7.03,32.19,18.59,32.19-18.59V25.07l-.41-.23-31.41,18.36Zm29.31-1.11h-3.12v3.12h3.12v3.12h-3.12v3.12h-3.12v-3.12h-3.12v3.12h-3.12v-3.12h-3.12v-3.12h3.12v-3.12h-3.12v-3.12h3.12v-3.12h3.12v3.12h3.12v-3.12h3.12v3.12h3.12v3.12Zm-9.38,0h3.12v3.12h-3.12v-3.12Zm15.78-21.98L40.78,.62c-1.45-.83-3.23-.83-4.69,0L2.34,20.11c-1.44,.84-2.34,2.39-2.34,4.06V63.14c0,1.67,.91,3.22,2.34,4.06l33.75,19.48c1.45,.83,3.23,.83,4.69,0l33.75-19.48c1.44-.84,2.34-2.39,2.34-4.06V24.17c0-1.67-.91-3.22-2.34-4.06Zm-.78,43.03c0,.56-.3,1.08-.78,1.36l-33.75,19.48c-.48,.27-1.08,.27-1.56,0L3.91,64.5c-.48-.28-.78-.8-.78-1.36V24.17c0-.56,.3-1.08,.78-1.36L37.66,3.32c.48-.27,1.08-.27,1.56,0l33.75,19.48c.48,.28,.78,.8,.78,1.36V63.14Z"/>
</svg>