<?xml version="1.0" encoding="UTF-8"?>
<svg id="Layer_1" data-name="Layer 1" xmlns="http://www.w3.org/2000/svg" viewBox="0 0 90.66 90.64">
  <defs>
    <style>
      .cls-1 {
        fill: #ed7899;
      }

      .cls-2 {
        fill: #fff7f0;
      }

      .cls-3 {
        fill: #faefde;
      }

      .cls-4 {
        fill: #8d6c9f;
      }
    </style>
  </defs>
  <path class="cls-2" d="M1.88,40.25c-2.81,24,14.37,45.73,38.37,48.54,24,2.81,45.73-14.37,48.54-38.37C91.59,26.41,74.41,4.68,50.41,1.88S4.68,16.25,1.88,40.25Z"/>
  <path class="cls-3" d="M45.33,79.7c-1.35,0-2.7-.08-4.05-.23-18.86-2.21-32.35-19.29-30.13-38.15C13.18,23.99,27.88,10.93,45.33,10.95c1.35,0,2.7,.08,4.05,.23,18.86,2.21,32.35,19.29,30.13,38.15-2.03,17.33-16.73,30.39-34.18,30.37Z"/>
  <path class="cls-4" d="M80.88,17.2C65.34-2.43,36.84-5.75,17.2,9.78-2.43,25.32-5.75,53.82,9.78,73.45c7.44,9.44,18.34,15.52,30.28,16.87,1.78,.21,3.57,.31,5.36,.31,25.03-.04,45.28-20.36,45.24-45.39-.02-10.18-3.46-20.07-9.78-28.05Zm6.36,33c-2.7,23.14-23.65,39.72-46.8,37.02C17.29,84.52,.72,63.57,3.42,40.42,5.91,19.19,23.88,3.18,45.25,3.14c1.67,0,3.33,.1,4.98,.3,23.14,2.71,39.7,23.66,37,46.8v-.03Z"/>
  <path class="cls-4" d="M12.52,43.06l3.12,.36h.19c.86,.05,1.6-.61,1.65-1.48,.05-.86-.61-1.6-1.48-1.65h0l-3.12-.36c-.86-.1-1.64,.52-1.74,1.38s.52,1.64,1.38,1.74Zm4.98,6.55c-.13-.85-.92-1.43-1.77-1.31l-3.12,.45c-.86,.06-1.51,.81-1.45,1.67,.06,.86,.81,1.51,1.67,1.45h.23l3.12-.45c.85-.13,1.44-.92,1.32-1.77,0-.01,0-.03,0-.04Zm3.23-21.14c.65,.57,1.64,.5,2.2-.15,.57-.65,.5-1.64-.15-2.2-.06-.05-.13-.1-.19-.14l-2.5-1.86c-.62-.6-1.61-.6-2.21,.02-.6,.62-.6,1.61,.02,2.21,.09,.09,.2,.17,.31,.24l2.52,1.89Zm-3.22,27.58l-2.88,1.23c-.79,.34-1.16,1.26-.82,2.05,.34,.79,1.26,1.16,2.05,.82l2.89-1.23c.79-.34,1.16-1.26,.82-2.05-.34-.79-1.26-1.16-2.05-.82h-.02Zm-3.2-21.66l2.91,1.16c.8,.32,1.71-.07,2.03-.88,.32-.8-.07-1.71-.88-2.03h0l-2.91-1.16c-.8-.32-1.71,.07-2.03,.88-.32,.8,.07,1.71,.88,2.03Zm59.88-6.97c-.74,.44-.99,1.4-.55,2.14,.61,1.01,1.16,2.05,1.66,3.12,.26,.82,1.14,1.28,1.96,1.02s1.28-1.14,1.02-1.96c-.03-.11-.08-.21-.14-.31-.54-1.19-1.15-2.36-1.81-3.48-.45-.74-1.4-.97-2.14-.53Zm3.2,11.45c1.29,5.54,1.12,11.31-.48,16.77-.24,.83,.23,1.7,1.06,1.94h0c.15,.02,.29,.02,.44,0,.72,.03,1.36-.44,1.56-1.13,1.76-5.97,1.94-12.3,.53-18.36-.19-.84-1.03-1.37-1.88-1.17s-1.37,1.03-1.17,1.88l-.06,.08Z"/>
  <path class="cls-1" d="M43.47,32.2c-1.13,1.88-1.4,4.16-.75,6.25,.26,.83,1.14,1.29,1.97,1.03s1.29-1.14,1.03-1.97c-.38-1.26-.22-2.62,.45-3.75,2.2-3.83,9.38-6.34,11.89-6.98,.84-.21,1.34-1.06,1.13-1.9-.21-.84-1.06-1.34-1.9-1.13-.42,.09-10.52,2.69-13.83,8.45Zm2.7,16.42c.72,.47,1.68,.27,2.16-.45,1.57-2.16,1.37-5.14-.47-7.08-.55-.67-1.53-.77-2.2-.22s-.77,1.53-.22,2.2c.02,.02,.04,.05,.06,.07,.93,.88,1.03,2.32,.22,3.31-.48,.72-.28,1.69,.44,2.16,0,0,0,0,.01,0Z"/>
  <path class="cls-4" d="M65.13,65.81c.38-1.06,0-2.52-1.88-3.39-.76-.43-1.72-.17-2.15,.59s-.17,1.72,.59,2.15c-3.12,2.42-20.31,6.09-37.13,1.86-.47-.13-.93-.31-1.36-.53,1.31-1.05,5.72-2.11,6.81-1.56,.71,.5,1.68,.32,2.18-.38,.5-.71,.32-1.68-.38-2.18h0c-2.25-1.56-7.66-.11-9.86,1.2-1.92,1.16-2.2,2.41-2.09,3.27,.27,2.08,2.94,2.88,3.89,3.12,5.63,1.36,11.4,2.04,17.19,2.02,12.48,.08,23.03-2.84,24.19-6.16Z"/>
  <path class="cls-4" d="M30.31,53.05c-.89,.66-1.27,1.8-.94,2.86,.37,1.19,1.73,2.13,3.73,2.8-.66,.41-1.14,1.06-1.33,1.81-.19,1.06,.25,2.13,1.14,2.73,1.69,1.38,5.59,2.39,10.2,2.39,3.97,.04,7.91-.72,11.58-2.23,.79-.34,1.16-1.26,.82-2.05-.34-.79-1.26-1.16-2.05-.82-7.63,3.27-16.16,1.89-18.25,.55,.5-.24,1.02-.43,1.56-.56,1.21-.34,2.46-.53,3.72-.56,.08,0,.16,0,.23,0h1.56c4.32,0,8.61-.59,12.77-1.77,.83-.24,1.3-1.11,1.06-1.94-.24-.83-1.11-1.3-1.94-1.06-9.95,2.92-19.52,1.33-21.56,0,.61-.38,1.27-.67,1.95-.88,1.26-.39,2.57-.64,3.89-.72h0c6.04,.03,12.06-.65,17.94-2.02,.86-.22,1.38-1.1,1.16-1.96-.22-.86-1.1-1.38-1.96-1.16-5.58,1.39-11.31,2.07-17.06,2.03h-.47c-3.03,.05-6.07-.22-9.05-.8,2.49-.98,5.14-1.51,7.81-1.56,.86,0,1.56-.7,1.56-1.56s-.7-1.56-1.56-1.56c-3.65,.06-7.24,.92-10.52,2.53-1.97,1.22-1.56,2.69-1.36,3.12,.53,1.14,2.53,1.92,5.34,2.39Z"/>
  <path class="cls-4" d="M59.28,45.33c-.82,.28-1.25,1.18-.96,1.99,.28,.82,1.18,1.25,1.99,.96,1.48-.62,3.18-.4,4.44,.59,.77,.6,1.11,1.59,.89,2.53-.5,2.16-3.45,4.2-7.92,5.48-.86,.12-1.47,.91-1.35,1.77,.12,.86,.91,1.47,1.77,1.35,.14,.02,.28,.02,.42,0,7.81-2.22,9.66-5.83,10.11-7.81,.47-2.02-.22-4.14-1.78-5.5-2.09-1.82-5.01-2.35-7.61-1.37Z"/>
  <path class="cls-1" d="M41.5,46.69c.7,.51,1.68,.36,2.19-.34,.51-.7,.36-1.68-.34-2.19-5.41-3.95-7.03-7.42-5.28-11.2,1.66-2.72,3.9-5.03,6.56-6.77,4.08-3.12,8.7-6.69,6.88-13.89-.21-.84-1.06-1.34-1.9-1.13-.84,.21-1.34,1.06-1.13,1.9h0c1.27,4.97-1.23,7.17-5.75,10.64-3.05,2-5.6,4.68-7.47,7.81-3.64,7.94,3.83,13.37,6.25,15.17Z"/>
  <path class="cls-4" d="M65.2,67.47c-.86-.06-1.61,.58-1.67,1.44-.19,2.41-10.73,5.23-26.86,4.2-.86-.05-1.6,.6-1.66,1.45-.05,.86,.6,1.6,1.45,1.66,.34,0,2.95,.19,6.52,.19,8.73,0,23.17-.95,23.66-7.27,.06-.86-.58-1.61-1.44-1.67Z"/>
</svg>