<?xml version="1.0" encoding="UTF-8"?>
<svg id="Layer_1" data-name="Layer 1" xmlns="http://www.w3.org/2000/svg" viewBox="0 0 75 75">
  <defs>
    <style>
      .cls-1 {
        fill: #000001;
      }

      .cls-2 {
        fill: #ffd600;
      }
    </style>
  </defs>
  <path class="cls-2" d="M0,75V0H75V75H0Z"/>
  <path class="cls-1" d="M49.04,56.14c1.44,2.34,3.01,4.59,6.33,4.59,2.79,0,4.25-1.39,4.25-3.3,0-2.29-1.51-3.11-4.58-4.44l-1.68-.72c-4.85-2.06-8.08-4.64-8.08-10.09,0-5.02,3.84-8.84,9.85-8.84,4.28,0,7.35,1.48,9.57,5.36l-5.24,3.35c-1.15-2.06-2.4-2.87-4.33-2.87s-3.22,1.24-3.22,2.87c0,2.01,1.25,2.82,4.14,4.06l1.68,.72c5.72,2.44,8.94,4.92,8.94,10.51,0,6.03-4.76,9.33-11.15,9.33s-9.8-3.14-11.77-7.02l5.29-3.51Zm-24.14,.17c1.05,1.89,2.66,3.34,4.96,3.34s3.47-.87,3.47-4.26v-22.06h6.94v23.13c0,7.01-4.07,10.21-10.01,10.21-5.37,0-9.24-3.64-10.82-7.02l5.46-3.34Z"/>
</svg>