<?xml version="1.0" encoding="UTF-8"?>
<svg id="Layer_4" data-name="Layer 4" xmlns="http://www.w3.org/2000/svg" viewBox="0 0 414.6 412.53">
  <g>
    <path d="M181.88,399.8c6.84,3.97,14.87,3.9,21.97,.56s14.54-7.26,20.45-12.09c10.54-8.62,17.64-32.5,4.68-42.21-6.33-4.75-14.82-3.63-21.41-.18-7.03,3.68-15.16,7.57-21.02,13.05-13.83,12.94-12.21,33.06-10.42,50.23l15.59-9c-2.47-4.03-1.88-8.63-1.77-13.17s.24-9.23,.36-13.85c.24-9.23,.48-18.47,.72-27.7,.5-19.46,.99-38.91,1.51-58.37,.2-7.43,.37-15.06,2.62-22.22,1.04-3.31,2.54-6.49,4.65-9.26,1.27-1.67,2.78-2.96,4.28-4.4,5.37-5.15-13.78,6.63-5.48,3.29,5.88-2.36,15.63-7,20.97-1.52,5.97,6.12,2.26,15.07-.82,21.59,.7-1.48,6.35-3.56,7.84-4.42,1.7-.98,6.88-2.74,7.75-4.58,2.82-5.97,6.05-13.24,2.34-19.56-3.94-6.69-11.18-4.29-17.28-2.36s-11.67,4.92-17.29,8.15-12.48,6.45-16.94,11.64c-8.94,10.38-8.04,25.77-8.37,38.59-.44,17.15-.89,34.3-1.33,51.45-.25,9.56-.49,19.13-.74,28.69-.12,4.62-.24,9.23-.36,13.85s-.69,9.15,1.77,13.17c-.25-.41,15.71-7.83,15.59-9-1.41-13.5-3.04-28.43,3.46-40.96,1.34-2.59,3-5.02,4.94-7.2,.97-1.09,2.03-2.02,3.09-3.03,2.57-1.99,1.35-1.38-3.65,1.83-5.29,2.69-6.44,3.44-3.45,2.24,5.87-1.57,12.14-1.79,17.29,2.02,9.63,7.14,7.46,23.53,2.73,32.83-1.36,2.68-3.1,5.18-5.2,7.34-1.94,1.99-6.15,4.26,2.48-.62,8.94-5.05,4.02-2.23,1.27-1.52-5.92,1.52-11.93,.78-17.22-2.29-.74-.43-6.97,3.92-7.84,4.42s-7.04,4.99-7.75,4.58h0Z"/>
    <path d="M53.02,332.64c3.12,11.85,15.26,18.63,27.1,17.06,6.21-.82,11.48-3.8,16.82-6.85,5.85-3.35,12.2-6.47,17.26-11.01,4.71-4.23,8.98-10.14,8.39-16.78s-5.65-12.06-11.5-14.72c-11.5-5.23-23.2-.83-33.39,4.99-6.63,3.79-13.51,7.38-19.34,12.37s-11.05,11.34-16.03,17.48l15.59-9c1.6-7.08,10.25-12.64,15.24-17.38,6.7-6.36,13.4-12.72,20.09-19.08,13.4-12.72,26.79-25.44,40.19-38.16,6.16-5.85,12.19-11.6,19.1-16.57-13.49,9.69-12.22,6.45-6.89,4.73,1.98-.64,4.04-1.06,6.12-1.21,4.1-.29,8.18,.44,12.06,1.74s7.7,3.21,11.34,5.22c2.9,1.6,6.29,3.25,7.67,6.46,1.22,2.83,.61,6.1-.81,8.73-.86,1.6-2.19,2.53-3.23,3.94,9.53-4.94,11.99-6.45,7.39-4.54-.98,.37-1.97,.73-2.96,1.08-5.58,2-10.06,7.02-15.59,9,7.28-2.61,13.75-6.55,20.4-10.45,5.32-3.12,11.54-6.97,11.01-14.11s-10.79-10.76-16.32-13.07c-7.43-3.1-15.3-4.14-22.97-1.27-7.08,2.65-13.74,7.21-20.17,11.09-5.91,3.56-11.01,8.06-16.01,12.78-13.42,12.69-26.79,25.44-40.19,38.16-7.65,7.27-15.31,14.54-22.96,21.81-3.59,3.41-7.18,6.81-10.76,10.22-3.06,2.9-6.38,5.59-7.34,9.88,.24-1.06,6.76-3.8,7.84-4.42,2.21-1.28,6.12-2.56,7.75-4.58,4.13-5.09,8.28-10.21,13.02-14.75,2.69-2.58,5.58-4.72,8.55-6.94-15.63,11.68-13.04,6.8-7.13,4.65,1.37-.5,2.78-.91,4.2-1.24,11.21-2.57,25.97,.76,29.82,13.09,1.96,6.28-.83,12.36-4.99,17.05-1.05,1.19-2.19,2.28-3.39,3.32-7.12,6.13,13.75-6.11,6.68-3.31-3.24,1.28-6.27,2.37-9.77,2.73-11.61,1.21-23.27-5.59-26.31-17.15,.37,1.4-16.02,7.35-15.59,9h0Z"/>
    <path d="M9.39,194.03c-7.71,13.28,.13,28.96,13.27,34.9,6.63,3,14.77,4.2,21.9,2.47s13.76-6.69,19.8-10.39c13.55-8.31,8.95-25.59-1.7-34.26-5.78-4.7-12.8-7.19-20.13-8.16-4.15-.55-8.34-.62-12.52-.47-2.41,.08-4.82,.26-7.22,.47-1.2,.11-2.4,.22-3.6,.34-.97,.47-1.8,.38-2.51-.27-5.11,2.94-10.21,5.88-15.32,8.82,4.4-1.65,9.2-1.01,13.81-.9s9.23,.24,13.85,.36c9.23,.24,18.47,.48,27.7,.72,19.38,.5,38.76,.94,58.14,1.5,15.11,.44,30.25,2.6,37.89,17.33,1.82,3.5,3.12,7.23,4.26,11,1.04,3.46,2.65,7.62,1.28,11.19-.3,.78-.71,1.49-1.23,2.14-3.82,4-.37,2.16,10.35-5.5-1.29,.15-2.48,.61-3.83,.64-4.73,.12-9.2-2.07-13.36-4.03-.92-.43-6.87,3.86-7.84,4.42s-6.85,5-7.75,4.58c6.48,3.06,13.03,5.66,19.85,2.2,3.91-1.99,7.69-4.34,11.48-6.56,2.28-1.34,5.03-2.6,6.69-4.74,4.27-5.48-.33-15.22-2.66-20.78-2.8-6.7-7.06-12.59-13.58-16.05s-13.59-4.22-20.59-4.62c-8.62-.49-17.29-.52-25.93-.74-18.47-.48-36.94-.95-55.4-1.43-10.4-.27-20.89-.96-31.3-.79-8.36,.13-16.04,6.5-22.92,10.71l-.27,.18c13.96-1.46,29.51-3.12,42.24,4.16,10.34,5.91,19.35,19.13,13.08,31.1-.75,1.42-1.75,2.47-2.74,3.7-3.53,3.31-.11,1.42,10.27-5.68-.89,.34-1.8,.62-2.72,.84-2.81,.68-5.77,.84-8.66,.68-6.3-.34-12.59-2.19-17.86-5.71-10.5-7.02-15.22-21.04-8.66-32.34-.94,1.62-6.16,3.46-7.84,4.42-1.88,1.09-6.62,2.64-7.75,4.58h0Z"/>
    <path d="M92.14,56.17c-6.33,1.67-12.04,5.82-17.61,9.09-4.68,2.75-8.82,5.54-11.69,10.32-6.88,11.45-2.98,25.74,5.51,35.2,4.23,4.71,10.14,8.98,16.78,8.39s13.59-6.09,19.2-9.39c10.82-6.37,15.28-16.92,12.7-29.34-3.16-15.21-15.97-25.66-27.43-34.94l-15.59,9c6.64,1.5,11.58,9.13,16.01,13.8,5.45,5.74,10.9,11.48,16.36,17.22,11.59,12.2,23.17,24.4,34.76,36.6,9.55,10.06,22.18,20.36,27.53,33.51,2.7,6.65,2.54,13.61,.28,20.37-2.02,6.07-5.33,14.27-10.47,18.36l15.3-8.86c-10.13,5.47-16.45-7.2-19.13-14.67,.32,.89-16,7.86-15.59,9,2.15,6,4.79,13.06,11.43,15.26,6.16,2.04,11.84-2.84,16.86-5.74,2.57-1.49,5.6-2.8,7.81-4.85,2.41-2.24,3.92-5.63,5.42-8.5,3.5-6.71,6.42-14.12,5.6-21.83-1.51-14.21-14.1-24.86-23.33-34.57-11.59-12.2-23.17-24.4-34.76-36.6-6.59-6.94-13.18-13.87-19.76-20.81-3.41-3.59-6.81-7.19-10.22-10.76-2.51-2.63-4.86-5.09-8.52-5.91-1.45-.33-6.52,3.66-7.84,4.42-.69,.4-7.35,4.91-7.75,4.58,10.04,8.13,20.99,16.92,25.79,29.35,2.16,5.6,3,11.85,1.92,17.79-.5,2.76-1.41,5.46-2.8,7.89-.7,1.22-1.51,2.38-2.43,3.44-4.49,5.15-4.45-1.19,8.05-3.66-6.72,1.33-11.81,.32-17.21-4.23-4.85-4.09-8.67-9.64-10.75-15.63s-2.4-12.07-.44-17.88c.95-2.83,2.41-5.48,4.28-7.8,.87-1.07,1.86-1.97,2.82-2.95,3.36-2.89,.27-1.17-9.28,5.14,.85-.32,1.72-.59,2.6-.79,2.62-.69,5.5-3.07,7.84-4.42s5.15-3.89,7.75-4.58h0Z"/>
    <path d="M230.75,12.54c-6.84-3.97-14.87-3.9-21.97-.56s-14.54,7.26-20.45,12.09c-10.54,8.62-17.64,32.5-4.68,42.21,6.33,4.75,14.82,3.63,21.41,.18,7.03-3.68,15.16-7.57,21.02-13.05,13.83-12.94,12.21-33.06,10.42-50.23l-15.59,9c2.47,4.03,1.88,8.63,1.77,13.17s-.24,9.23-.36,13.85c-.24,9.23-.48,18.47-.72,27.7-.5,19.46-.99,38.91-1.51,58.37-.2,7.43-.37,15.06-2.62,22.22-1.04,3.31-2.54,6.49-4.65,9.26-1.27,1.67-2.78,2.96-4.28,4.4-5.37,5.15,13.78-6.63,5.48-3.29-5.88,2.36-15.63,7-20.97,1.52-5.97-6.12-2.26-15.07,.82-21.59-.7,1.48-6.35,3.56-7.84,4.42-1.7,.98-6.88,2.74-7.75,4.58-2.82,5.97-6.05,13.24-2.34,19.56,3.94,6.69,11.18,4.29,17.28,2.36s11.67-4.92,17.29-8.15,12.48-6.45,16.94-11.64c8.94-10.38,8.04-25.77,8.37-38.59,.44-17.15,.89-34.3,1.33-51.45,.25-9.56,.49-19.13,.74-28.69,.12-4.62,.24-9.23,.36-13.85s.69-9.15-1.77-13.17c.25,.41-15.71,7.83-15.59,9,1.41,13.5,3.04,28.43-3.46,40.96-1.34,2.59-3,5.02-4.94,7.2-.97,1.09-2.03,2.02-3.09,3.03-2.57,1.99-1.35,1.38,3.65-1.83,5.29-2.69,6.44-3.44,3.45-2.24-5.87,1.57-12.14,1.79-17.29-2.02-9.63-7.14-7.46-23.53-2.73-32.83,1.36-2.68,3.1-5.18,5.2-7.34,1.94-1.99,6.15-4.26-2.48,.62s-4.02,2.23-1.27,1.52c5.92-1.52,11.93-.78,17.22,2.29,.74,.43,6.97-3.92,7.84-4.42s7.04-4.99,7.75-4.58h0Z"/>
    <path d="M359.61,79.7c-3.12-11.85-15.26-18.63-27.1-17.06-6.21,.82-11.48,3.8-16.82,6.85-5.85,3.35-12.2,6.47-17.26,11.01-4.71,4.23-8.98,10.14-8.39,16.78s5.65,12.06,11.5,14.72c11.5,5.23,23.2,.83,33.39-4.99,6.63-3.79,13.51-7.38,19.34-12.37s11.05-11.34,16.03-17.48l-15.59,9c-1.6,7.08-10.25,12.64-15.24,17.38-6.7,6.36-13.4,12.72-20.09,19.08-13.4,12.72-26.79,25.44-40.19,38.16-6.16,5.85-12.19,11.6-19.1,16.57,13.49-9.69,12.22-6.45,6.89-4.73-1.98,.64-4.04,1.06-6.12,1.21-4.1,.29-8.18-.44-12.06-1.74s-7.7-3.21-11.34-5.22c-2.9-1.6-6.29-3.25-7.67-6.46-1.22-2.83-.61-6.1,.81-8.73,.86-1.6,2.19-2.53,3.23-3.94-9.53,4.94-11.99,6.45-7.39,4.54,.98-.37,1.97-.73,2.96-1.08,5.58-2,10.06-7.02,15.59-9-7.28,2.61-13.75,6.55-20.4,10.45-5.32,3.12-11.54,6.97-11.01,14.11s10.79,10.76,16.32,13.07c7.43,3.1,15.3,4.14,22.97,1.27,7.08-2.65,13.74-7.21,20.17-11.09,5.91-3.56,11.01-8.06,16.01-12.78,13.42-12.69,26.79-25.44,40.19-38.16,7.65-7.27,15.31-14.54,22.96-21.81,3.59-3.41,7.18-6.81,10.76-10.22,3.06-2.9,6.38-5.59,7.34-9.88-.24,1.06-6.76,3.8-7.84,4.42-2.21,1.28-6.12,2.56-7.75,4.58-4.13,5.09-8.28,10.21-13.02,14.75-2.69,2.58-5.58,4.72-8.55,6.94,15.63-11.68,13.04-6.8,7.13-4.65-1.37,.5-2.78,.91-4.2,1.24-11.21,2.57-25.97-.76-29.82-13.09-1.96-6.28,.83-12.36,4.99-17.05,1.05-1.19,2.19-2.28,3.39-3.32,7.12-6.13-13.75,6.11-6.68,3.31,3.24-1.28,6.27-2.37,9.77-2.73,11.61-1.21,23.27,5.59,26.31,17.15-.37-1.4,16.02-7.35,15.59-9h0Z"/>
    <path d="M403.24,218.31c7.71-13.28-.13-28.96-13.27-34.9-6.63-3-14.77-4.2-21.9-2.47s-13.76,6.69-19.8,10.39c-13.55,8.31-8.95,25.59,1.7,34.26,5.78,4.7,12.8,7.19,20.13,8.16,4.15,.55,8.34,.62,12.52,.47,2.41-.08,4.82-.26,7.22-.47,1.2-.11,2.4-.22,3.6-.34,.97-.47,1.8-.38,2.51,.27,5.11-2.94,10.21-5.88,15.32-8.82-4.4,1.65-9.2,1.01-13.81,.9s-9.23-.24-13.85-.36c-9.23-.24-18.47-.48-27.7-.72-19.38-.5-38.76-.94-58.14-1.5-15.11-.44-30.25-2.6-37.89-17.33-1.82-3.5-3.12-7.23-4.26-11-1.04-3.46-2.65-7.62-1.28-11.19,.3-.78,.71-1.49,1.23-2.14,3.82-4,.37-2.16-10.35,5.5,1.29-.15,2.48-.61,3.83-.64,4.73-.12,9.2,2.07,13.36,4.03,.92,.43,6.87-3.86,7.84-4.42s6.85-5,7.75-4.58c-6.48-3.06-13.03-5.66-19.85-2.2-3.91,1.99-7.69,4.34-11.48,6.56-2.28,1.34-5.03,2.6-6.69,4.74-4.27,5.48,.33,15.22,2.66,20.78,2.8,6.7,7.06,12.59,13.58,16.05s13.59,4.22,20.59,4.62c8.62,.49,17.29,.52,25.93,.74,18.47,.48,36.94,.95,55.4,1.43,10.4,.27,20.89,.96,31.3,.79,8.36-.13,16.04-6.5,22.92-10.71l.27-.18c-13.96,1.46-29.51,3.12-42.24-4.16-10.34-5.91-19.35-19.13-13.08-31.1,.75-1.42,1.75-2.47,2.74-3.7,3.53-3.31,.11-1.42-10.27,5.68,.89-.34,1.8-.62,2.72-.84,2.81-.68,5.77-.84,8.66-.68,6.3,.34,12.59,2.19,17.86,5.71,10.5,7.02,15.22,21.04,8.66,32.34,.94-1.62,6.16-3.46,7.84-4.42,1.88-1.09,6.62-2.64,7.75-4.58h0Z"/>
    <path d="M320.49,356.17c6.33-1.67,12.04-5.82,17.61-9.09,4.68-2.75,8.82-5.54,11.69-10.32,6.88-11.45,2.98-25.74-5.51-35.2-4.23-4.71-10.14-8.98-16.78-8.39s-13.59,6.09-19.2,9.39c-10.82,6.37-15.28,16.92-12.7,29.34,3.16,15.21,15.97,25.66,27.43,34.94l15.59-9c-6.64-1.5-11.58-9.13-16.01-13.8-5.45-5.74-10.9-11.48-16.36-17.22-11.59-12.2-23.17-24.4-34.76-36.6-9.55-10.06-22.18-20.36-27.53-33.51-2.7-6.65-2.54-13.61-.28-20.37,2.02-6.07,5.33-14.27,10.47-18.36l-15.3,8.86c10.13-5.47,16.45,7.2,19.13,14.67-.32-.89,16-7.86,15.59-9-2.15-6-4.79-13.06-11.43-15.26-6.16-2.04-11.84,2.84-16.86,5.74-2.57,1.49-5.6,2.8-7.81,4.85-2.41,2.24-3.92,5.63-5.42,8.5-3.5,6.71-6.42,14.12-5.6,21.83,1.51,14.21,14.1,24.86,23.33,34.57,11.59,12.2,23.17,24.4,34.76,36.6,6.59,6.94,13.18,13.87,19.76,20.81,3.41,3.59,6.81,7.19,10.22,10.76,2.51,2.63,4.86,5.09,8.52,5.91,1.45,.33,6.52-3.66,7.84-4.42,.69-.4,7.35-4.91,7.75-4.58-10.04-8.13-20.99-16.92-25.79-29.35-2.16-5.6-3-11.85-1.92-17.79,.5-2.76,1.41-5.46,2.8-7.89,.7-1.22,1.51-2.38,2.43-3.44,4.49-5.15,4.45,1.19-8.05,3.66,6.72-1.33,11.81-.32,17.21,4.23,4.85,4.09,8.67,9.64,10.75,15.63s2.4,12.07,.44,17.88c-.95,2.83-2.41,5.48-4.28,7.8-.87,1.07-1.86,1.97-2.82,2.95-3.36,2.89-.27,1.17,9.28-5.14-.85,.32-1.72,.59-2.6,.79-2.62,.69-5.5,3.07-7.84,4.42s-5.15,3.89-7.75,4.58h0Z"/>
  </g>
  <path d="M166.02,200.61c5.84-1.24,10.43-3.7,15.57-6.65,5.41-3.11,12.12-5.71,14.87-11.69l-15.59,9c-2.15,13.39-4.77,26.69-7.87,39.9l15.59-9c2.94-15.04,9.07-31.43,22.68-39.92l-15.32,8.82c5.43-2.4,4.18,9.29,3.94,12.42-.43,5.7-1.86,11.17-4.11,16.41l15.59-9c3.45-10,7.29-21.12,16.31-27.46l-1.04,.65c-11.98,4.74-15.57,6.95-10.75,6.63,.48-.1,.92,.02,1.31,.38,.79,.86,1.09,1.72,1.31,2.85,.52,2.58,.02,5.56-.43,8.11-1.1,6.22-4.48,12.8-4.21,19.18,.3,7.19,6.7,3.35,10.29,1.31,5.11-2.92,10.95-5.38,14.66-10.09-1.41,1.79-5.83,3.26-7.84,4.42-2.18,1.26-6.16,2.56-7.75,4.58-1.12,1.42-2.07,2.6-3.63,3.61,5.11-2.94,10.21-5.88,15.32-8.82-10.02,3.25-2.9-15.94-1.98-19.75s2.33-8.93,.91-12.66-4.32-1.5-6.71-.18c-7,3.87-15.39,7.55-20.57,13.89s-8.11,14.59-10.78,22.36c.44-1.27,6.57-3.69,7.84-4.42,1.84-1.06,3.68-2.12,5.5-3.2,.48-.29,2.04-.89,2.25-1.37,3.27-7.63,6.09-18.4,3.83-26.71-1.26-4.62-4.67-1.6-7.56,.04-4.22,2.4-8.54,4.72-12.6,7.39-13.17,8.66-19.14,24.73-22.04,39.55,.2-1.01,6.8-3.82,7.84-4.42,1.28-.74,7.4-3.09,7.75-4.58,3.1-13.2,5.72-26.5,7.87-39.9-.15,.94-6.85,3.85-7.84,4.42-1.84,1.06-3.68,2.12-5.5,3.2-.49,.29-2.02,.88-2.25,1.37-1.18,2.56-2.73,4.33-5.05,5.92l9.82-5.77-1.12,.64,5.77-3.23c-2.79,1.34-5.66,2.13-8.68,2.77-2.55,.54-5.59,3.12-7.84,4.42s-5.22,4.04-7.75,4.58h0Z"/>
</svg>