<?xml version="1.0" encoding="UTF-8"?>
<svg id="Layer_1" data-name="Layer 1" xmlns="http://www.w3.org/2000/svg" viewBox="0 0 258.74 143.17">
  <defs>
    <style>
      .cls-1 {
        fill: #fff;
      }
    </style>
  </defs>
  <path class="cls-1" d="M26.41,10.75c-.07,3.52-.1,6.05-.1,7.62,2.73-1.95,5.63-4.03,8.69-6.25,3.06-2.21,6.15-4.17,9.28-5.86,3.25-1.82,6.51-3.32,9.77-4.49C57.3,.6,60.56,.01,63.82,.01c4.69,0,8.89,1.34,12.6,4,3.71,2.67,6.48,7.32,8.3,13.96,5.47-4.3,11.39-8.36,17.77-12.21,6.38-3.84,12.82-5.76,19.34-5.76,3.91,0,7.26,.81,10.06,2.44,2.8,1.63,5.11,3.81,6.93,6.54,1.82,2.73,3.19,5.89,4.1,9.47s1.37,7.26,1.37,11.04v46.48c0,5.47,.88,9.25,2.64,11.33s5.37,3.12,10.84,3.12v4.88c-5.34-.13-11.75-.23-19.24-.29s-14.1,.03-19.82,.29v-4.88c5.6,0,9.28-1.04,11.04-3.12s2.64-5.86,2.64-11.33V36.71c0-3.52-.2-6.87-.59-10.06-.39-3.19-1.24-5.96-2.54-8.3-1.3-2.34-3.22-4.23-5.76-5.66-2.54-1.43-6.02-2.15-10.45-2.15-2.48,0-5.05,.49-7.71,1.46-2.67,.98-5.31,2.18-7.91,3.61-2.48,1.3-4.79,2.73-6.93,4.3s-3.88,2.87-5.18,3.91v52.15c0,5.47,.94,9.25,2.83,11.33s5.69,3.12,11.43,3.12v4.88c-2.87,0-6.02-.03-9.47-.1-3.45-.06-6.93-.1-10.45-.1h-10.64c-3.45,0-6.54,.07-9.28,.2v-4.88c5.47,0,9.08-1.04,10.84-3.12s2.64-5.86,2.64-11.33V36.71c0-3.52-.17-6.87-.49-10.06-.33-3.19-1.14-5.96-2.44-8.3-1.3-2.34-3.19-4.23-5.66-5.66-2.48-1.43-5.93-2.15-10.35-2.15-1.95,0-4.14,.42-6.54,1.27-2.41,.85-4.92,1.92-7.52,3.22-2.61,1.43-5.11,2.96-7.52,4.59s-4.53,3.29-6.35,4.98v51.37c0,5.47,.88,9.25,2.64,11.33,1.76,2.08,5.44,3.12,11.04,3.12v4.88c-5.6-.13-12.21-.23-19.82-.29-7.62-.06-14.36,.03-20.21,.29v-4.88c5.86,0,9.7-1.04,11.52-3.12,1.82-2.08,2.73-5.86,2.73-11.33V29.49c0-3.52-.1-6.31-.29-8.4-.2-2.08-.68-3.71-1.46-4.88s-1.95-1.95-3.52-2.34-3.71-.59-6.45-.59v-4.1c4.17-.65,7.97-1.63,11.43-2.93,3.45-1.3,6.61-3.32,9.47-6.05h3.71c-.39,3.52-.62,7.03-.68,10.55h-.05Z"/>
  <path class="cls-1" d="M258.35,14.65l-20.51-.78c1.3,1.56,2.51,4.1,3.61,7.62,1.1,3.52,1.66,6.51,1.66,8.98,0,10.29-3.35,18.2-10.06,23.73-6.71,5.54-15.53,8.3-26.46,8.3-1.56,0-3.29-.03-5.18-.1-1.89-.06-3.81-.36-5.76-.88-1.56,1.17-2.9,2.18-4,3.03-1.11,.85-1.99,1.66-2.64,2.44-.78,.78-1.3,1.63-1.56,2.54-.26,.91-.39,1.95-.39,3.12,0,.78,.06,1.79,.2,3.03,.13,1.24,.71,2.44,1.76,3.61,1.04,1.17,2.67,2.18,4.88,3.03s5.4,1.27,9.57,1.27c2.47,0,4.91,.03,7.32,.1s4.72,.1,6.93,.1h13.09c8.2,0,14.91,1.83,20.12,5.47,5.21,3.65,7.81,9.44,7.81,17.38,0,4.82-1.37,9.41-4.1,13.77s-6.51,8.23-11.33,11.62c-4.69,3.38-10.29,6.08-16.8,8.11-6.51,2.02-13.48,3.03-20.9,3.03-6.25,0-11.72-.78-16.41-2.34s-8.59-3.52-11.72-5.86-5.44-4.95-6.93-7.81c-1.5-2.87-2.25-5.79-2.25-8.79,0-6.77,2.37-12.24,7.13-16.41,4.75-4.17,9.99-7.1,15.72-8.79-7.03-1.56-11.69-4.62-13.96-9.18-2.28-4.56-2.7-9.31-1.27-14.26,2.73-1.56,5.53-3.35,8.4-5.37,2.86-2.02,4.88-3.61,6.05-4.79-4.82-2.47-8.95-5.89-12.4-10.25s-5.18-10.12-5.18-17.29c0-9.11,3.16-16.73,9.47-22.85C188.57,3.06,197.79,0,209.9,0,212.63,0,215.63,.29,218.88,.88s6.18,1.21,8.79,1.86c2.73,1.04,5.73,1.92,8.98,2.64s7.23,1.07,11.91,1.07c.91,0,1.69,.03,2.34,.1,.65,.07,1.3,.03,1.95-.1,.65,0,1.37-.03,2.15-.1,.78-.06,1.89-.23,3.32-.49V14.65h.03Zm-79.49,100.78c0,7.03,2.99,12.33,8.98,15.92,5.99,3.58,12.96,5.37,20.9,5.37,5.34,0,10.38-.59,15.14-1.76,4.75-1.17,8.95-2.8,12.6-4.88,3.52-2.08,6.31-4.56,8.4-7.42,2.08-2.87,3.12-6.12,3.12-9.77,0-3.26-.88-6.02-2.64-8.3s-4.07-4.07-6.93-5.37c-3-1.43-6.42-2.44-10.25-3.03-3.84-.59-7.91-.88-12.21-.88-12.11,0-21.32,1.86-27.64,5.57-6.32,3.71-9.47,8.56-9.47,14.55h0Zm7.42-85.55c0,7.42,1.82,13.87,5.47,19.34,3.64,5.47,9.11,8.2,16.41,8.2,8.33,0,14.22-2.47,17.68-7.42,3.45-4.95,5.18-10.74,5.18-17.38,0-3.12-.46-6.35-1.37-9.67-.91-3.32-2.28-6.28-4.1-8.89-1.83-2.6-4.23-4.75-7.23-6.45-3-1.69-6.58-2.54-10.74-2.54-3.78,0-7.03,.78-9.77,2.34s-4.95,3.52-6.64,5.86c-1.69,2.48-2.93,5.18-3.71,8.11s-1.17,5.76-1.17,8.5h0Z"/>
</svg>