<?xml version="1.0" encoding="UTF-8"?>
<svg id="Layer_1" data-name="Layer 1" xmlns="http://www.w3.org/2000/svg" xmlns:xlink="http://www.w3.org/1999/xlink" viewBox="0 0 79.17 79.17">
  <defs>
    <style>
      .cls-1 {
        fill: url(#linear-gradient);
      }

      .cls-2 {
        fill: url(#linear-gradient-2);
      }
    </style>
    <linearGradient id="linear-gradient" x1="-131.65" y1="258.01" x2="-115.79" y2="244.71" gradientTransform="translate(286.55 554.13) scale(2.08 -2.08)" gradientUnits="userSpaceOnUse">
      <stop offset="0" stop-color="#26abe7"/>
      <stop offset="1" stop-color="#086dbf"/>
    </linearGradient>
    <linearGradient id="linear-gradient-2" x1="-106.77" y1="233.07" x2="-118.59" y2="249.95" gradientTransform="translate(286.55 554.13) scale(2.08 -2.08)" gradientUnits="userSpaceOnUse">
      <stop offset="0" stop-color="#feb705"/>
      <stop offset="1" stop-color="#ffda1c"/>
    </linearGradient>
  </defs>
  <path class="cls-1" d="M40.59,0c-3.24,.01-5.49,.3-8.2,.76-8.02,1.4-9.48,4.33-9.48,9.73v8.26h18.75v4.17H13.14c-5.49,0-10.3,2.59-11.82,8.79-1.72,7.12-1.8,11.58,0,19.01,1.36,5.54,4.37,9.7,9.86,9.7h7.57v-10.63c0-6.18,5.6-12.28,12.01-12.28h15.07c5.26,0,10.42-3.88,10.42-9.12V10.49c0-5.08-3.66-8.88-8.79-9.73,.13-.01-3.66-.77-6.87-.76Zm-10.38,8.33c1.71,0,3.12,1.41,3.12,3.13s-1.41,3.12-3.12,3.12-3.12-1.38-3.12-3.12,1.38-3.13,3.12-3.13Z"/>
  <path class="cls-2" d="M38.57,79.17c3.24-.01,5.49-.3,8.2-.76,8.02-1.4,9.48-4.33,9.48-9.73v-8.26h-18.75v-4.17h28.53c5.49,0,10.3-2.59,11.82-8.79,1.72-7.12,1.8-11.58,0-19.01-1.37-5.54-4.37-9.7-9.87-9.7h-7.57v10.63c0,6.18-5.6,12.28-12.01,12.28h-15.07c-5.26,0-10.42,3.88-10.42,9.12v17.89c0,5.08,3.66,8.88,8.79,9.73-.13,.01,3.66,.77,6.87,.76Zm10.39-8.33c-1.71,0-3.12-1.41-3.12-3.13s1.41-3.12,3.12-3.12,3.12,1.38,3.12,3.12-1.38,3.13-3.12,3.13Z"/>
</svg>