<?xml version="1.0" encoding="UTF-8"?>
<svg id="Layer_1" data-name="Layer 1" xmlns="http://www.w3.org/2000/svg" viewBox="0 0 98.9 35.17">
  <path d="M31.35,0c-.78,0-1.59,.05-2.42,.15l.48,1.5c.73-.08,1.46-.1,2.2-.1h.26l-.51-1.54Zm9.64,1.49l-.1,1.67c.83,.28,1.64,.59,2.45,.92l.1-1.7c-.23-.12-.86-.43-2.45-.89Zm-20.78,.96c-.63,.33-1.29,.68-1.97,1.09l1.16,1.77c.66-.41,1.29-.78,1.95-1.11l-1.14-1.75Zm11.46,.08c-.71,0-1.43,.04-2.14,.12-7.38,.66-16.44,7.37-21.72,16.19C2.5,27.67,1.78,35.17,1.78,35.17H21.72s-3.81-17.41,8.81-24.47c2.63-1.28,10.79-5.91,24.04,2.97l.99-.9c-3.75-3.22-13.26-10.32-23.89-10.24Zm9.27,6.9l-.1,1.59c.83,.02,1.66,.13,2.5,.31l.1-1.57c-.86-.18-1.69-.27-2.5-.32Zm-5.91,.6c-.86,.25-1.59,.53-2.22,.81l.58,1.74c.73-.35,1.47-.66,2.2-.89l-.56-1.67Zm-25.03,.1c-.66,.63-1.29,1.26-1.87,1.89l1.94,1.67c.53-.68,1.11-1.36,1.72-2l-1.79-1.56Zm18.08,3.74c-.58,.53-1.12,1.11-1.57,1.69l1.21,1.82c.43-.63,.93-1.21,1.49-1.79l-1.14-1.72Zm3.63,3.6v17.38h4.23v-4.8l.54,.56,3.97,4.25h6.42l-5.57-5.62,.67-.06c.17-.02,4.14-.44,4.14-5.77s-4.87-5.91-5.05-5.93h-9.34Zm21.75,.12c-3.28,0-4.39,3.02-4.39,4.39v12.87h4.3v-3.16h5.25v3.16h4.14v-12.87c0-3.58-3.24-4.39-4.38-4.39h-4.93Zm12.18,0v17.25h4.5V17.59h-4.5Zm7.22,0v17.26h11.38v-4h-6.9v-13.26h-4.49Zm17.85,0c-1.85,0-4.41,1.55-4.41,4.46v1.59c0,2.99,2.63,4.39,4.41,4.39h2.24c.35,0,1.97,0,1.97,0v2.84l-8.37,.02v3.94h7.95c1.64,0,4.29-1.19,4.38-4.38v-1.77c0-2.74-2.23-4.38-4.38-4.38h-4.43v-2.75h8.16v-3.97h-7.52Zm-67.1,3.32c-.33,.94-.56,1.87-.76,2.78l2.05,1.62c.1-.98,.28-1.97,.53-2.96l-1.82-1.44Zm31.59,.32h1.68c1.32,0,1.7,.84,1.71,1.29v4.69h-5.25v-4.69s.02-1.29,1.86-1.29Zm-19.26,.12l4.31,.02c.05,.02,1.29,.51,1.29,2.34s-1.25,2.34-1.42,2.39h-4.17v-4.75ZM1.26,21.93c-.48,1.08-1.01,2.35-1.26,3.03l2.91,1.06c.33-.86,.86-2.1,1.26-3.03l-2.91-1.06Zm21.22,8.18c.05,1.34,.18,2.42,.31,3.18l3.03,1.09c-.23-.98-.46-2.1-.61-3.28l-2.73-.98Z"/>
</svg>