<?xml version="1.0" encoding="UTF-8"?>
<svg id="Layer_1" data-name="Layer 1" xmlns="http://www.w3.org/2000/svg" viewBox="0 0 76 76">
  <defs>
    <style>
      .cls-1 {
        fill: #f9dbd2;
      }

      .cls-2 {
        fill: #ee3e54;
      }

      .cls-3 {
        fill: #f1bc19;
      }

      .cls-4 {
        fill: #fff;
      }

      .cls-5 {
        fill: #fbcd59;
      }

      .cls-6 {
        fill: #472b29;
      }

      .cls-7 {
        fill: #77cbd2;
      }
    </style>
  </defs>
  <circle class="cls-3" cx="66" cy="2" r="1"/>
  <circle class="cls-1" cx="38" cy="38" r="38"/>
  <circle class="cls-3" cx="72" cy="4" r="4"/>
  <circle class="cls-2" cx="2" cy="14" r="2"/>
  <circle class="cls-5" cx="66" cy="65" r="2"/>
  <circle class="cls-5" cx="5" cy="66" r="4"/>
  <circle class="cls-2" cx="12" cy="71" r="2"/>
  <circle class="cls-4" cx="54.5" cy="66.5" r="2.5"/>
  <circle class="cls-4" cx="4" cy="36" r="1"/>
  <circle class="cls-3" cx="74" cy="19" r="1"/>
  <circle class="cls-4" cx="68" cy="54" r="2"/>
  <path class="cls-7" d="M38,51c-16,0-28-5.6-28-13s12-13,28-13,28,5.6,28,13-12,13-28,13Zm0-22.1c-14.3,0-24.3,4.8-24.3,9.1s10,9.1,24.3,9.1,24.3-4.8,24.3-9.1-10-9.1-24.3-9.1Z"/>
  <path class="cls-6" d="M38,51.7c-16.4,0-28.7-5.9-28.7-13.7s12.3-13.7,28.7-13.7,28.7,5.9,28.7,13.7-12.3,13.7-28.7,13.7Zm0-26c-15.6,0-27.3,5.3-27.3,12.3s11.7,12.3,27.3,12.3,27.3-5.3,27.3-12.3-11.7-12.3-27.3-12.3Zm0,22.1c-14.9,0-25-5.1-25-9.8s10-9.8,25-9.8,25,5.1,25,9.8-10.1,9.8-25,9.8Zm0-18.2c-14.6,0-23.6,4.9-23.6,8.4s9,8.4,23.6,8.4,23.6-4.9,23.6-8.4-9-8.4-23.6-8.4Z"/>
  <path class="cls-7" d="M27.5,63.2c-1.3,0-2.4-.3-3.4-.9-6.1-3.6-4.8-16.7,3.1-30.6,5.5-9.7,12.9-17,18.9-18.6,2.2-.6,4.2-.4,5.8,.5,6.1,3.6,4.8,16.7-3.1,30.6-5.5,9.7-12.9,17-18.9,18.6-.8,.3-1.6,.4-2.4,.4ZM48.5,16.5c-.4,0-.9,.1-1.5,.2-4.9,1.3-11.6,8.1-16.6,16.8-6.9,12.1-8,23.4-4.5,25.5,.7,.4,1.7,.5,3,.2,4.9-1.3,11.6-8.1,16.6-16.8,6.9-12.1,8-23.4,4.5-25.5-.4-.2-.9-.4-1.5-.4Z"/>
  <path class="cls-6" d="M27.5,63.9c-1.4,0-2.7-.3-3.8-1-6.5-3.8-5.3-17.4,2.8-31.6,5.6-9.9,13.2-17.3,19.3-18.9,2.4-.6,4.6-.4,6.4,.6,6.5,3.8,5.3,17.4-2.8,31.6-5.6,9.9-13.2,17.3-19.3,18.9-.9,.3-1.7,.4-2.6,.4ZM48.5,13.5c-.7,0-1.5,.1-2.2,.3-5.8,1.5-13,8.7-18.4,18.2-7.6,13.3-9,26.3-3.3,29.7,1.4,.8,3.3,1,5.3,.5,5.8-1.5,13-8.7,18.4-18.2,7.6-13.3,9.1-26.3,3.3-29.6-1-.6-2-.9-3.1-.9ZM27.5,60.2c-.7,0-1.3-.2-1.9-.5-4.4-2.5-2.4-14.9,4.2-26.5,5.1-8.9,11.9-15.8,17-17.1,1.4-.4,2.6-.3,3.5,.2,4.4,2.5,2.4,14.9-4.2,26.5-5.1,8.9-11.9,15.8-17,17.1-.5,.2-1.1,.3-1.6,.3ZM48.5,17.2c-.4,0-.8,.1-1.3,.2-4.8,1.3-11.3,7.9-16.2,16.5-7.1,12.5-7.6,22.9-4.7,24.6,.6,.3,1.4,.4,2.4,.1,4.8-1.3,11.3-7.9,16.2-16.5,7.1-12.5,7.6-22.9,4.7-24.6-.3-.2-.7-.3-1.1-.3Z"/>
  <path class="cls-7" d="M48.5,63.2c-.8,0-1.6-.1-2.4-.3-5.9-1.6-13.3-8.9-18.9-18.6-7.9-13.9-9.2-27-3.1-30.6,1.6-.9,3.6-1.1,5.8-.5,5.9,1.6,13.3,8.9,18.9,18.6,7.9,13.9,9.2,27,3.1,30.6-1,.5-2.2,.8-3.4,.8ZM27.5,16.5c-.6,0-1.1,.1-1.5,.4-3.6,2.1-2.4,13.5,4.5,25.5,5,8.7,11.6,15.5,16.6,16.8,1.2,.3,2.2,.3,3-.2,3.6-2.1,2.4-13.5-4.5-25.5-5-8.7-11.6-15.5-16.6-16.8-.6-.1-1-.2-1.5-.2Z"/>
  <path class="cls-6" d="M48.5,63.9c-.8,0-1.7-.1-2.6-.4-6.1-1.6-13.7-9.1-19.3-18.9-8.1-14.2-9.3-27.8-2.8-31.6,1.8-1,4-1.3,6.4-.6,6.1,1.6,13.7,9.1,19.3,18.9,8.1,14.2,9.3,27.8,2.8,31.6-1.2,.7-2.4,1-3.8,1ZM27.5,13.5c-1.1,0-2.2,.3-3.1,.8-5.7,3.3-4.2,16.4,3.3,29.6,5.4,9.5,12.7,16.7,18.4,18.2,2,.5,3.8,.4,5.3-.5,5.7-3.3,4.2-16.4-3.3-29.7-5.4-9.5-12.7-16.7-18.4-18.2-.7-.1-1.5-.2-2.2-.2Zm21,46.7c-.5,0-1-.1-1.6-.2-5.1-1.4-11.9-8.3-17-17.1-6.6-11.6-8.6-23.9-4.2-26.5,.9-.5,2.1-.6,3.5-.2,5.1,1.4,11.9,8.3,17,17.1,6.6,11.6,8.6,23.9,4.2,26.5-.6,.2-1.2,.4-1.9,.4ZM27.5,17.2c-.5,0-.9,.1-1.2,.3-2.8,1.7-2.4,12.1,4.7,24.6,4.9,8.6,11.4,15.2,16.2,16.5,1,.3,1.9,.2,2.4-.1,2.8-1.7,2.4-12.1-4.7-24.6-4.9-8.6-11.3-15.2-16.1-16.5-.5-.1-.9-.2-1.3-.2Z"/>
  <g>
    <circle class="cls-7" cx="38" cy="38" r="5.5"/>
    <path class="cls-6" d="M38,44c-3.3,0-6-2.7-6-6s2.7-6,6-6,6,2.7,6,6-2.7,6-6,6Zm0-11c-2.8,0-5,2.2-5,5s2.2,5,5,5,5-2.2,5-5-2.2-5-5-5Z"/>
  </g>
  <path class="cls-6" d="M38,41.8c-.1,0-.3-.1-.3-.3s.1-.3,.3-.3c.4,0,.7-.1,1.1-.2,.5-.2,.9-.5,1.3-.8,.1-.1,.3-.1,.4,0,.1,.1,.1,.3,0,.4-.4,.4-.9,.8-1.5,1-.4,.1-.9,.2-1.3,.2Z"/>
  <path class="cls-6" d="M41.1,39.8h-.1c-.1-.1-.2-.2-.1-.3,.2-.4,.3-.9,.3-1.4,0-1.3-.7-2.4-1.8-2.9-.1-.1-.2-.2-.1-.3,.1-.1,.2-.2,.3-.1,1.3,.6,2.1,1.9,2.1,3.4,0,.6-.1,1.1-.4,1.7,0-.2-.1-.1-.2-.1Z"/>
  <path class="cls-6" d="M36.1,35.3c-.1,0-.2,0-.2-.1-.1-.1,0-.3,.1-.3,.6-.4,1.3-.6,2-.6,.1,0,.3,.1,.3,.3s-.1,.3-.3,.3c-.6,0-1.2,.2-1.8,.5q0-.1-.1-.1Z"/>
  <path class="cls-6" d="M41.5,24.8q-.1,0-.2-.1c-3.7-4.6-7.2-7.6-10.4-8.9-.1-.1-.2-.2-.1-.3,.1-.1,.2-.2,.3-.1,3.3,1.4,6.8,4.5,10.6,9.1,.1,.1,.1,.3,0,.4-.1-.2-.1-.1-.2-.1Z"/>
  <path class="cls-6" d="M24.5,15.8q-.1,0-.2-.1c-.1-.1-.1-.3,0-.4,.3-.2,1.9-1.3,4.8-.7,.1,0,.2,.2,.2,.3s-.2,.2-.3,.2c-2.7-.6-4.1,.4-4.3,.6-.1,0-.1,.1-.2,.1Z"/>
  <path class="cls-6" d="M61.3,43.5q-.1,0-.2-.1c-.1-.1-.1-.3,0-.4,2.3-1.9,3.2-4.1,2.7-6.6,0-.1,.1-.3,.2-.3s.3,.1,.3,.2c.6,2.6-.4,5.1-2.9,7.1,0,.1-.1,.1-.1,.1Z"/>
  <path class="cls-6" d="M57,45.9c-.1,0-.2-.1-.2-.2s0-.3,.2-.3c0,0,1.4-.5,2.9-1.4,.1-.1,.3,0,.3,.1,.1,.1,0,.3-.1,.3-1.6,1-3,1.4-3.1,1.5h0Z"/>
  <path class="cls-6" d="M27.1,61.6h0c-2.7-.1-4.4-2.1-5-5.7,0-.1,.1-.3,.2-.3s.3,.1,.3,.2c.6,3.4,2.1,5.2,4.5,5.3,.1,0,.2,.1,.2,.3,.1,.1,0,.2-.2,.2Z"/>
  <path class="cls-6" d="M22.1,53.7c-.1,0-.2-.1-.3-.2-.1-2.3,.2-4.3,.3-4.6,0-.1,.2-.2,.3-.2s.2,.2,.2,.3-.4,2.1-.3,4.4c.1,.2,0,.3-.2,.3h0Z"/>
</svg>