<?xml version="1.0" encoding="UTF-8"?>
<svg id="Layer_1" data-name="Layer 1" xmlns="http://www.w3.org/2000/svg" viewBox="0 0 75 75">
  <defs>
    <style>
      .cls-1 {
        fill: #ff5252;
      }

      .cls-2 {
        fill: #e53935;
      }

      .cls-3 {
        fill: #9b1010;
      }

      .cls-4 {
        fill: #b71c1c;
      }

      .cls-5 {
        fill: #c62828;
      }
    </style>
  </defs>
  <path class="cls-3" d="M75,16.67l-4.17,54.17-54.17,4.17L75,16.67Z"/>
  <path class="cls-4" d="M45.83,45.83l25,25,4.17-54.17-29.17,29.17Z"/>
  <path class="cls-5" d="M20.32,20.32C1.91,38.72-5.31,61.34,4.18,70.83s32.1,2.26,50.51-16.14c18.4-18.4,25.63-41.02,16.14-50.51C61.33-5.31,38.72,1.91,20.32,20.32h0Z"/>
  <path class="cls-2" d="M8.33,22.92l14.58-14.58L39.58,0l12.5,8.33-6.25,18.75-18.75,16.67-18.75,6.25L0,37.5l8.33-14.58Z"/>
  <path class="cls-1" d="M52.08,8.33L39.58,0h22.92l-10.42,8.33Zm22.92,10.42l-22.92-10.42-6.25,18.75,29.17-8.33ZM27.08,43.75l27.57,10.91-8.82-27.57-18.75,16.67Zm-18.75,6.25l8.33,25,10.42-31.25-18.75,6.25ZM0,37.5v22.92l8.33-10.42L0,37.5Z"/>
</svg>