<?xml version="1.0" encoding="UTF-8"?>
<svg id="Layer_1" data-name="Layer 1" xmlns="http://www.w3.org/2000/svg" viewBox="0 0 761.34 797.81">
  <defs>
    <style>
      .cls-1 {
        fill: #2cb134;
      }
    </style>
  </defs>
  <path class="cls-1" d="M696.37,.01c1.95-.12,3.8,.87,4.77,2.57,.97,1.7,.89,3.79-.21,5.41h0l-197.17,267.83c-1.44,1.63-3.52,2.56-5.7,2.56s-4.25-.93-5.7-2.56h0l-69.52-77.5c-1.7-1.76-4.1-2.66-6.54-2.44s-4.64,1.54-5.99,3.58h0l-42.17,53.57c-1.33,3.02-.9,6.52,1.14,9.12h0l125.37,129.93c1.44,1.63,3.52,2.56,5.7,2.56s4.25-.93,5.7-2.56h0L752.21,115.12c1.45-1.56,3.71-2.09,5.7-1.34,2,.75,3.35,2.63,3.41,4.76h0V792.1c.09,1.54-.48,3.04-1.57,4.13-1.09,1.09-2.59,1.66-4.13,1.57H5.71c-1.54,.09-3.04-.48-4.13-1.57-1.09-1.09-1.66-2.59-1.57-4.13H.01V5.71C-.08,4.17,.49,2.67,1.58,1.58,2.67,.49,4.17-.08,5.71,.01H696.37Zm-193.75,454.74c-33.93-.6-66.63,12.7-90.52,36.8-23.89,24.1-36.89,56.92-35.99,90.84,0,78.64,56.98,128.79,131.07,128.79,34.29,.85,67.92-9.56,95.73-29.63,2.58-2.34,3.06-6.21,1.14-9.12h0l-20.51-30.77c-2.31-2.64-6.23-3.14-9.12-1.14-17.83,12.18-38.82,18.91-60.4,19.37-39.89,0-64.96-25.07-69.52-54.71,.08-1.22,1.06-2.2,2.28-2.28h172.09c3.67-.25,6.59-3.17,6.84-6.84h0v-6.84c0-79.78-50.15-134.48-123.09-134.48Zm-169.81-43.31c-34.62-28.3-78.42-42.9-123.09-41.03-77.5,0-125.37,45.59-125.37,100.29,0,124.23,189.19,84.34,189.19,142.46,0,18.24-18.24,36.47-56.98,36.47-36.8,.3-72.31-13.57-99.15-38.75-1.6-1.5-3.77-2.23-5.96-2.01s-4.17,1.37-5.44,3.15h0l-29.63,41.03c-1.92,2.9-1.44,6.78,1.14,9.12,30.77,28.49,74.08,47.87,134.48,47.87,88.9,0,132.2-45.59,134.48-104.85,0-123.09-189.19-87.76-189.19-140.18,0-19.37,17.1-33.05,46.73-33.05,32.67-.45,64.48,10.43,90.04,30.77,1.5,1.23,3.44,1.8,5.37,1.59,1.93-.21,3.69-1.2,4.89-2.73h0l29.63-39.89c1.23-1.5,1.8-3.44,1.59-5.37s-1.2-3.69-2.73-4.89Zm170.95,93.46c31-1.73,57.76,21.49,60.4,52.43-.08,1.22-1.06,2.2-2.28,2.28h-116.25c-1.22-.08-2.2-1.06-2.28-2.28,3.81-30.33,29.84-52.92,60.4-52.43Z"/>
</svg>