<?xml version="1.0" encoding="UTF-8"?>
<svg id="Layer_1" data-name="Layer 1" xmlns="http://www.w3.org/2000/svg" viewBox="0 0 83.33 83.96">
  <defs>
    <style>
      .cls-1 {
        fill: #fff;
      }

      .cls-2 {
        fill: #8bc34a;
      }
    </style>
  </defs>
  <path class="cls-2" d="M83.3,41.53c.14-8.88-1.86-19.43-6.02-31.82l-3.27-9.71-4.44,9.24c-.24,.49-.51,.98-.79,1.45C61.49,4.43,52.03,.62,41.67,.62,18.65,.62,0,19.28,0,42.29s18.65,41.67,41.67,41.67,41.67-18.65,41.67-41.67c0-.26-.03-.5-.04-.76Z"/>
  <path class="cls-1" d="M73.72,60.12c-6.51,8.96-18.02,9.44-28.86,9.25H26.69c9.22-3.32,14.71-4.11,20.32-7.08,10.56-5.55,21-17.7,23.17-30.34-4.02,12.16-16.21,22.6-27.31,26.85-7.61,2.9-21.35,5.72-21.35,5.72l-.56-.3c-9.35-4.71-9.64-25.65,7.37-32.41,7.45-2.96,14.57-1.34,22.61-3.32,8.59-2.11,18.52-8.77,22.56-17.45,4.53,13.89,9.97,35.64,.21,49.08h0Zm-49.41,12.26c-.59,.73-1.49,1.16-2.42,1.16-1.71,0-3.11-1.41-3.11-3.12s1.41-3.12,3.11-3.12c.71,0,1.41,.25,1.96,.7,1.33,1.08,1.54,3.06,.46,4.39h0Z"/>
</svg>