<?xml version="1.0" encoding="UTF-8"?>
<svg id="Layer_1" data-name="Layer 1" xmlns="http://www.w3.org/2000/svg" viewBox="0 0 66 66">
  <defs>
    <style>
      .cls-1 {
        fill: #f15b6c;
      }

      .cls-2 {
        fill: #fefdef;
      }

      .cls-3 {
        fill: #1f212b;
      }
    </style>
  </defs>
  <path class="cls-1" d="M52,65H14c-7.18,0-13-5.82-13-13V14C1,6.82,6.82,1,14,1H52c7.18,0,13,5.82,13,13V52c0,7.18-5.82,13-13,13Z"/>
  <path class="cls-3" d="M49.5,61H16.5c-6.34,0-11.5-5.16-11.5-11.5V16.5c0-6.34,5.16-11.5,11.5-11.5H49.5c.35,0,.7,.02,1.05,.05,.28,.02,.48,.27,.45,.54-.03,.27-.26,.48-.54,.45-.32-.03-.63-.05-.95-.05H16.5c-5.79,0-10.5,4.71-10.5,10.5V49.5c0,5.79,4.71,10.5,10.5,10.5H49.5c5.79,0,10.5-4.71,10.5-10.5v-17c0-.28,.22-.5,.5-.5s.5,.22,.5,.5v17c0,6.34-5.16,11.5-11.5,11.5Zm11-38c-.28,0-.5-.22-.5-.5v-2c0-.28,.22-.5,.5-.5s.5,.22,.5,.5v2c0,.28-.22,.5-.5,.5Zm0,7c-.28,0-.5-.22-.5-.5v-4c0-.28,.22-.5,.5-.5s.5,.22,.5,.5v4c0,.28-.22,.5-.5,.5Z"/>
  <path class="cls-3" d="M52,66H14c-7.72,0-14-6.28-14-14V14C0,6.28,6.28,0,14,0H52c7.72,0,14,6.28,14,14V52c0,7.72-6.28,14-14,14ZM14,2C7.38,2,2,7.38,2,14V52c0,6.62,5.38,12,12,12H52c6.62,0,12-5.38,12-12V14c0-6.62-5.38-12-12-12H14Z"/>
  <path class="cls-2" d="M44.96,31.42c-3.21,.56-7.45,.86-11.96,.86s-8.75-.31-11.96-.87c-3.59-.62-5.42-1.47-5.9-2.74-.09,.23-.14,.46-.14,.72v7.2c0,1.69,1.81,2.72,6.04,3.45,3.21,.56,7.45,.86,11.96,.86s8.75-.31,11.96-.87c4.23-.74,6.04-1.77,6.04-3.45v-7.2c0-.26-.06-.49-.14-.72-.48,1.27-2.31,2.11-5.9,2.74"/>
  <path class="cls-2" d="M44.96,42.94c-3.21,.56-7.45,.86-11.96,.86s-8.75-.31-11.96-.87c-3.59-.62-5.42-1.47-5.9-2.74-.09,.23-.14,.46-.14,.72v7.2c0,1.68,1.81,2.72,6.04,3.46,3.21,.56,7.45,.87,11.96,.87s8.75-.31,11.96-.86c4.23-.74,6.04-1.77,6.04-3.46v-7.2c0-.26-.06-.49-.14-.72-.48,1.27-2.31,2.11-5.9,2.74"/>
  <path class="cls-2" d="M44.96,14.42c-3.21-.56-7.45-.86-11.96-.86s-8.75,.31-11.96,.86c-4.24,.74-6.04,1.77-6.04,3.46v7.2c0,1.69,1.81,2.72,6.04,3.46,3.21,.56,7.45,.86,11.96,.86s8.75-.31,11.96-.87c4.24-.74,6.04-1.77,6.04-3.45v-7.2c0-1.69-1.81-2.72-6.04-3.46Zm-11.96,.58c9.15,0,16.56,1.29,16.56,2.88s-7.41,2.88-16.56,2.88-16.56-1.29-16.56-2.88,7.41-2.88,16.56-2.88Z"/>
  <path class="cls-1" d="M39.24,24.52c-.45,0-.83-.35-.86-.81-.03-.48,.33-.89,.8-.92,2.22-.15,4.21-.38,5.91-.68,.61-.1,1.43-.25,2.28-.47,.46-.12,.93,.16,1.05,.62,.12,.46-.16,.93-.62,1.05-.91,.24-1.78,.38-2.42,.49-1.76,.31-3.81,.54-6.09,.7-.02,0-.04,0-.06,0Z"/>
  <path class="cls-1" d="M39.24,36.04c-.45,0-.83-.35-.86-.81-.03-.48,.33-.89,.8-.92,2.21-.15,4.2-.38,5.91-.68,.61-.1,1.43-.25,2.28-.47,.46-.12,.93,.16,1.05,.62,.12,.46-.16,.93-.62,1.05-.91,.24-1.78,.38-2.42,.49-1.77,.31-3.82,.54-6.09,.7-.02,0-.04,0-.06,0Z"/>
  <path class="cls-1" d="M39.24,47.56c-.45,0-.83-.35-.86-.81-.03-.48,.33-.89,.8-.92,2.21-.15,4.2-.38,5.91-.68,.61-.1,1.43-.25,2.28-.47,.46-.12,.93,.16,1.05,.62,.12,.46-.16,.93-.62,1.05-.91,.24-1.78,.38-2.42,.49-1.77,.31-3.82,.54-6.09,.7-.02,0-.04,0-.06,0Z"/>
</svg>