<?xml version="1.0" encoding="UTF-8"?>
<svg id="Layer_1" data-name="Layer 1" xmlns="http://www.w3.org/2000/svg" xmlns:xlink="http://www.w3.org/1999/xlink" viewBox="0 0 75 75">
  <defs>
    <style>
      .cls-1 {
        fill: url(#linear-gradient);
      }

      .cls-2 {
        fill: #fff;
      }

      .cls-3 {
        isolation: isolate;
        opacity: .05;
      }
    </style>
    <linearGradient id="linear-gradient" x1="-139.1" y1="244.9" x2="-103.1" y2="244.9" gradientTransform="translate(289.79 547.71) scale(2.08 -2.08)" gradientUnits="userSpaceOnUse">
      <stop offset="0" stop-color="#0d61a9"/>
      <stop offset="1" stop-color="#16528c"/>
    </linearGradient>
  </defs>
  <path class="cls-1" d="M70.83,0H4.17C1.86,0,0,1.86,0,4.17V70.83c0,2.3,1.86,4.17,4.17,4.17H70.83c2.3,0,4.17-1.86,4.17-4.17V4.17c0-2.3-1.86-4.17-4.17-4.17Z"/>
  <path class="cls-3" d="M68.37,51.26c-1.7-2.22-3.96-3.51-6.15-4.56-.66-.32-1.33-.64-2-.95-1.39-.65-2.82-1.33-4.17-2.05-1.01-.54-.8-1.06-.68-1.34,.11-.26,.55-.45,1.07-.45,.16,0,.32,.02,.48,.05,.59,.11,1.7,1.06,2.28,1.94l.57,.87,.56,.87,.87-.56,.87-.56c.17-.11,4.22-2.71,5.75-3.82l.63-.46,.63-.46-.26-.74-.26-.74c-.1-.29-2.63-7.04-12.96-7.04h-.01c-3.36,.09-6.19,1.26-8.47,3.48-.48,.47-.9,.99-1.29,1.55v-5.04H14.58v10.49h10.36v29.04h10.39v-1.04s0-1.04,0-1.04l.1-26.96h8.46c-.05,.5-.08,1-.07,1.51,.06,3.28,1.38,6.31,3.62,8.32,1.51,1.36,3.26,2.32,4.95,3.25l.45,.25c1.13,.62,2.28,1.17,3.4,1.7,.89,.42,1.75,.83,2.6,1.27,.31,.16,.44,.38,.43,.75-.01,.49-.21,.76-.68,.96-.72,.31-1.43,.46-2.1,.46-1.01,0-1.99-.36-2.91-1.06-.5-.38-.98-.95-1.5-1.55-.29-.34-.59-.69-.91-1.04l-.57-.61-.57-.61-.72,.42-.72,.42c-1.81,1.06-5.92,3.53-5.92,3.53l-.88,.53-.88,.53,.52,.89,.52,.89c1.49,2.55,3.56,4.76,5.56,5.93,2.77,1.62,5.8,2.44,9,2.44,1.74,0,3.57-.25,5.44-.73,4.02-1.04,6.94-3.65,8.21-7.33,1.34-3.86,.63-8.41-1.79-11.58Z"/>
  <path class="cls-3" d="M55.6,32.3h-.03c-3.04,.08-5.64,1.15-7.73,3.18-1.95,1.9-3.03,4.72-2.97,7.74,.06,2.99,1.25,5.75,3.27,7.57,1.42,1.28,3.12,2.21,4.76,3.11l.45,.25c1.1,.61,2.24,1.15,3.34,1.67,.89,.42,1.77,.84,2.64,1.29,.67,.35,1.01,.94,.99,1.7-.03,.9-.47,1.53-1.31,1.89-.85,.36-1.7,.54-2.51,.54-1.24,0-2.43-.43-3.55-1.27-.59-.44-1.11-1.06-1.66-1.71-.28-.33-.57-.67-.88-1l-.57-.61-.72,.42c-1.81,1.05-5.91,3.53-5.91,3.53l-.88,.53,.52,.89c1.4,2.4,3.34,4.48,5.19,5.56,2.61,1.52,5.46,2.3,8.48,2.3,1.66,0,3.4-.23,5.18-.7,3.67-.95,6.34-3.32,7.49-6.66,1.22-3.55,.58-7.71-1.64-10.61-1.56-2.05-3.7-3.26-5.77-4.26-.66-.32-1.33-.63-1.99-.95-1.4-.66-2.84-1.34-4.22-2.07-1.19-.63-1.6-1.58-1.16-2.65,.28-.68,1.06-1.1,2.04-1.1,.22,0,.44,.02,.67,.06,.98,.18,2.3,1.39,2.96,2.4l.56,.87,.87-.56c.17-.11,4.21-2.71,5.7-3.79l.63-.46-.26-.74c-.09-.26-2.38-6.35-11.98-6.35h0Z"/>
  <path class="cls-3" d="M44.79,32.29H15.62v8.4h10.36v29.04h8.31v-1.04s.11-28,.11-28h10.38v-8.4h0Z"/>
  <path class="cls-2" d="M49.65,57.97c.94,1.01,1.69,2.08,2.68,2.83,2.15,1.63,4.58,1.92,7.09,.86,1.21-.51,1.91-1.49,1.95-2.81,.04-1.17-.52-2.12-1.54-2.66-1.96-1.03-4.02-1.88-5.96-2.95-1.74-.96-3.55-1.91-5.01-3.22-3.86-3.48-3.86-10.3-.27-13.79,1.95-1.9,4.3-2.81,7.03-2.89,8.98,0,11,5.66,11,5.66-1.49,1.08-5.65,3.76-5.65,3.76-.75-1.14-2.27-2.6-3.64-2.85-1.72-.32-3.32,.33-3.86,1.66-.63,1.54-.08,3.05,1.63,3.97,2.04,1.09,4.16,2.03,6.24,3.04,2.04,.99,4,2.12,5.4,3.96,3.55,4.64,2.84,13.53-5.29,15.64-4.44,1.15-8.79,.89-12.87-1.5-1.92-1.12-3.71-3.29-4.81-5.18,0,0,4.1-2.47,5.9-3.52Z"/>
  <polygon class="cls-2" points="16.67 33.33 16.67 39.65 27.02 39.65 27.02 68.69 33.26 68.69 33.37 39.65 43.75 39.65 43.75 33.33 16.67 33.33"/>
</svg>